<svg width="90" height="90" viewBox="0 0 90 90" fill="none" xmlns="http://www.w3.org/2000/svg">
<rect width="90" height="90" fill="white"/>
<path d="M51.75 41.9286H39.25V36.5714H54.875V33H39.25C37.5924 33 36.0027 33.3763 34.8306 34.046C33.6585 34.7158 33 35.6242 33 36.5714V54.4286C33 55.3758 33.6585 56.2842 34.8306 56.954C36.0027 57.6237 37.5924 58 39.25 58H51.75C53.4076 58 54.9973 57.6237 56.1694 56.954C57.3415 56.2842 58 55.3758 58 54.4286V45.5C58 44.5528 57.3415 43.6444 56.1694 42.9746C54.9973 42.3048 53.4076 41.9286 51.75 41.9286ZM39.25 54.4286V45.5H51.75V54.4286H39.25Z" fill="#1E1E1E"/>
</svg>
