<svg width="90" height="90" viewBox="0 0 90 90" fill="none" xmlns="http://www.w3.org/2000/svg">
<rect width="90" height="90" fill="white"/>
<path d="M50.75 33H38.25C36.5924 33 35.0027 33.3763 33.8306 34.046C32.6585 34.7158 32 35.6242 32 36.5714V54.4286C32 55.3758 32.6585 56.2842 33.8306 56.954C35.0027 57.6237 36.5924 58 38.25 58H50.75C52.4076 58 53.9973 57.6237 55.1694 56.954C56.3415 56.2842 57 55.3758 57 54.4286V36.5714C57 35.6242 56.3415 34.7158 55.1694 34.046C53.9973 33.3763 52.4076 33 50.75 33ZM50.75 36.5714V43.7143H38.25V36.5714H50.75ZM38.25 54.4286V47.2857H50.75V54.4286H38.25Z" fill="#1E1E1E"/>
</svg>
