<svg width="90" height="90" viewBox="0 0 90 90" fill="none" xmlns="http://www.w3.org/2000/svg">
<rect width="90" height="90" fill="white"/>
<path d="M51.75 33H39.25C37.5924 33 36.0027 33.3763 34.8306 34.046C33.6585 34.7158 33 35.6242 33 36.5714V45.5C33 46.4472 33.6585 47.3556 34.8306 48.0254C36.0027 48.6952 37.5924 49.0714 39.25 49.0714H51.75V54.4286H36.125V58H51.75C53.4076 58 54.9973 57.6237 56.1694 56.954C57.3415 56.2842 58 55.3758 58 54.4286V36.5714C58 35.6242 57.3415 34.7158 56.1694 34.046C54.9973 33.3763 53.4076 33 51.75 33ZM51.75 45.5H39.25V36.5714H51.75V45.5Z" fill="#1E1E1E"/>
</svg>
