<svg width="90" height="90" viewBox="0 0 90 90" fill="none" xmlns="http://www.w3.org/2000/svg">
<rect width="90" height="90" fill="#0B2639"/>
<path d="M62 36.1667C62 33.8685 60.2561 32 58.1111 32H39.4748C38.4418 32 37.4514 32.4362 36.7222 33.2174L27.5712 43.0286C27.2066 43.4193 27 43.9466 27 44.5C27 45.0534 27.2066 45.5807 27.5712 45.9714L36.7222 55.7826C37.4514 56.5638 38.4418 57 39.4748 57H58.1111C60.2561 57 62 55.1315 62 52.8333V36.1667ZM43.467 39.2266C44.0382 38.6146 44.9618 38.6146 45.5269 39.2266L48.3828 42.2865L51.2387 39.2266C51.8099 38.6146 52.7335 38.6146 53.2986 39.2266C53.8637 39.8385 53.8698 40.8281 53.2986 41.4336L50.4427 44.4935L53.2986 47.5534C53.8698 48.1654 53.8698 49.1549 53.2986 49.7604C52.7274 50.3659 51.8038 50.3724 51.2387 49.7604L48.3828 46.7005L45.5269 49.7604C44.9557 50.3724 44.0321 50.3724 43.467 49.7604C42.9019 49.1484 42.8958 48.1589 43.467 47.5534L46.3229 44.4935L43.467 41.4336C42.8958 40.8216 42.8958 39.832 43.467 39.2266V39.2266Z" fill="#39ADFF"/>
</svg>
