<svg width="100" height="30" viewBox="0 0 100 30" fill="none" xmlns="http://www.w3.org/2000/svg">
<rect width="50" height="30" fill="white" fill-opacity="0.19"/>
<path d="M19.2437 14.5C19.2437 17.9513 22.0512 20.7588 25.5025 20.7588C28.9537 20.7588 31.7613 17.9513 31.7613 14.5C31.7613 11.0487 28.9537 8.24125 25.5025 8.24125C22.0512 8.24125 19.2437 11.0487 19.2437 14.5ZM24.25 23.25H26.75V27H24.25V23.25ZM24.25 2H26.75V5.75H24.25V2ZM13 13.25H16.75V15.75H13V13.25ZM34.25 13.25H38V15.75H34.25V13.25ZM17.5463 24.2225L15.7787 22.455L18.43 19.8037L20.1975 21.5712L17.5463 24.2225ZM30.8025 7.43L33.455 4.7775L35.2225 6.545L32.57 9.1975L30.8025 7.43ZM18.43 9.19875L15.7787 6.54625L17.5475 4.77875L20.1975 7.43125L18.43 9.19875ZM35.2225 22.455L33.455 24.2225L30.8025 21.57L32.57 19.8025L35.2225 22.455Z" fill="white"/>
<rect x="50" width="50" height="30" fill="#39ADFF"/>
<path d="M85.4029 16.0243C84.5421 16.2528 83.6553 16.3685 82.7646 16.3684C80.0528 16.3684 77.506 15.3145 75.5931 13.4023C74.3369 12.1393 73.4338 10.5693 72.9738 8.84874C72.5138 7.12815 72.513 5.31709 72.9714 3.59608C73.0286 3.3809 73.0283 3.15446 72.9703 2.93946C72.9124 2.72447 72.7989 2.52848 72.6413 2.37117C72.4837 2.21385 72.2874 2.10074 72.0722 2.04317C71.8571 1.9856 71.6305 1.98561 71.4154 2.04319C69.26 2.61734 67.2936 3.74797 65.7134 5.32166C60.7622 10.2711 60.7622 18.3276 65.7134 23.2796C66.8903 24.4626 68.2902 25.4006 69.8321 26.0392C71.374 26.6777 73.0273 27.0043 74.6963 27C76.3649 27.0046 78.0178 26.6783 79.5593 26.0399C81.1008 25.4015 82.5003 24.4638 83.6766 23.2809C85.2521 21.7009 86.3837 19.7342 86.9576 17.5785C87.0146 17.3634 87.0141 17.1371 86.9562 16.9223C86.8983 16.7074 86.785 16.5115 86.6276 16.3542C86.4702 16.1968 86.2742 16.0836 86.0593 16.0257C85.8444 15.9678 85.618 15.9673 85.4029 16.0243ZM81.8819 21.4855C80.9406 22.4315 79.821 23.1816 78.5878 23.6923C77.3546 24.2029 76.0324 24.464 74.6976 24.4605C73.3623 24.4638 72.0397 24.2025 70.8061 23.6916C69.5725 23.1807 68.4525 22.4305 67.5108 21.4842C63.5503 17.5239 63.5503 11.0787 67.5108 7.11834C68.2761 6.35418 69.1596 5.71834 70.1274 5.23532C69.9857 7.06255 70.2404 8.89882 70.8739 10.6186C71.5075 12.3384 72.505 13.9012 73.7983 15.2002C75.0949 16.4971 76.6578 17.497 78.379 18.1308C80.1001 18.7646 81.9384 19.0172 83.7668 18.8711C83.281 19.8368 82.6448 20.7193 81.8819 21.4855Z" fill="#F8F8F8"/>
</svg>
