<svg width="100" height="30" viewBox="0 0 100 30" fill="none" xmlns="http://www.w3.org/2000/svg">
<rect width="50" height="30" fill="#FF3939"/>
<path d="M19.2437 14.5C19.2437 17.9512 22.0512 20.7587 25.5025 20.7587C28.9537 20.7587 31.7613 17.9512 31.7613 14.5C31.7613 11.0488 28.9537 8.24125 25.5025 8.24125C22.0512 8.24125 19.2437 11.0488 19.2437 14.5ZM24.25 23.25H26.75V27H24.25V23.25ZM24.25 2H26.75V5.75H24.25V2ZM13 13.25H16.75V15.75H13V13.25ZM34.25 13.25H38V15.75H34.25V13.25ZM17.5463 24.2225L15.7788 22.455L18.43 19.8038L20.1975 21.5712L17.5463 24.2225ZM30.8025 7.43L33.455 4.7775L35.2225 6.545L32.57 9.1975L30.8025 7.43ZM18.43 9.19875L15.7788 6.54625L17.5475 4.77875L20.1975 7.43125L18.43 9.19875ZM35.2225 22.455L33.455 24.2225L30.8025 21.57L32.57 19.8025L35.2225 22.455Z" fill="white"/>
<rect x="50" width="50" height="30" fill="#0B2639" fill-opacity="0.29"/>
<path d="M86.4029 16.0243C85.5421 16.2528 84.6553 16.3685 83.7646 16.3684C81.0528 16.3684 78.506 15.3145 76.5931 13.4023C75.3369 12.1393 74.4338 10.5693 73.9738 8.84874C73.5138 7.12815 73.513 5.31709 73.9714 3.59608C74.0286 3.3809 74.0283 3.15446 73.9703 2.93946C73.9124 2.72447 73.7989 2.52848 73.6413 2.37117C73.4836 2.21385 73.2874 2.10074 73.0722 2.04317C72.8571 1.9856 72.6305 1.98561 72.4154 2.04319C70.26 2.61734 68.2936 3.74797 66.7134 5.32166C61.7622 10.2711 61.7622 18.3276 66.7134 23.2796C67.8903 24.4626 69.2902 25.4006 70.8321 26.0392C72.374 26.6777 74.0273 27.0043 75.6963 26.9999C77.3649 27.0046 79.0178 26.6783 80.5593 26.0399C82.1008 25.4015 83.5003 24.4638 84.6766 23.2809C86.2521 21.7009 87.3837 19.7342 87.9576 17.5785C88.0146 17.3634 88.0141 17.1371 87.9562 16.9223C87.8983 16.7074 87.785 16.5115 87.6276 16.3542C87.4702 16.1968 87.2742 16.0836 87.0593 16.0257C86.8444 15.9678 86.618 15.9673 86.4029 16.0243V16.0243ZM82.8819 21.4855C81.9406 22.4315 80.821 23.1816 79.5878 23.6923C78.3546 24.2029 77.0324 24.464 75.6976 24.4605C74.3623 24.4638 73.0397 24.2025 71.8061 23.6916C70.5725 23.1807 69.4525 22.4305 68.5108 21.4842C64.5503 17.5239 64.5503 11.0787 68.5108 7.11834C69.2761 6.35418 70.1596 5.71834 71.1274 5.23532C70.9857 7.06255 71.2404 8.89882 71.8739 10.6186C72.5075 12.3384 73.505 13.9012 74.7983 15.2002C76.0949 16.4971 77.6578 17.497 79.379 18.1308C81.1001 18.7646 82.9385 19.0172 84.7668 18.8711C84.281 19.8368 83.6448 20.7193 82.8819 21.4855V21.4855Z" fill="#F8F8F8"/>
</svg>
