<svg width="90" height="90" viewBox="0 0 90 90" fill="none" xmlns="http://www.w3.org/2000/svg">
<rect width="90" height="90" fill="white"/>
<path d="M50.75 58H38.25C36.5924 58 35.0027 57.6237 33.8306 56.954C32.6585 56.2842 32 55.3758 32 54.4286V36.5714C32 35.6242 32.6585 34.7158 33.8306 34.046C35.0027 33.3763 36.5924 33 38.25 33H50.75C52.4076 33 53.9973 33.3763 55.1694 34.046C56.3415 34.7158 57 35.6242 57 36.5714V54.4286C57 55.3758 56.3415 56.2842 55.1694 56.954C53.9973 57.6237 52.4076 58 50.75 58ZM38.25 36.5714V54.4286H50.75V36.5714H38.25Z" fill="#1E1E1E"/>
</svg>
