<svg width="90" height="90" viewBox="0 0 90 90" fill="none" xmlns="http://www.w3.org/2000/svg">
<rect width="90" height="90" fill="white"/>
<path d="M58.2367 38.345L46.7656 32.4223C46.26 32.156 45.6522 32 45.0011 32C44.35 32 43.7422 32.157 43.2189 32.4302L43.2356 32.4223L31.7644 38.345C31.2291 38.623 30.7846 39.0215 30.475 39.5008C30.1654 39.9802 30.0017 40.5237 30 41.0773V52.9227C30.0013 53.4736 30.1633 54.0147 30.47 54.4925C30.7767 54.9703 31.2175 55.3682 31.7489 55.6471L31.7667 55.655L43.2356 61.5777C43.7721 61.8561 44.3819 62.0019 45.0022 62C45.6511 62 46.2589 61.843 46.7822 61.5698L46.7667 61.5777L58.2356 55.655C58.7709 55.377 59.2154 54.9785 59.525 54.4991C59.8346 54.0198 59.9983 53.4762 60 52.9227V41.0773C59.9992 40.5264 59.8375 39.9853 59.5309 39.5074C59.2244 39.0296 58.7836 38.6316 58.2522 38.3529L58.2367 38.345ZM57.6489 52.9227C57.6489 53.3092 57.4144 53.648 57.0644 53.8308L57.06 53.8328L45.5889 59.7555C45.409 59.8486 45.2047 59.8974 44.9968 59.8969C44.7889 59.8963 44.5849 59.8465 44.4056 59.7525L44.4111 59.7545L32.94 53.8318C32.7613 53.7396 32.613 53.6069 32.5098 53.4472C32.4066 53.2874 32.3523 53.1062 32.3522 52.9217V41.0763C32.3522 40.6898 32.5867 40.351 32.9367 40.1682L32.9411 40.1662L44.4122 34.2435C44.5922 34.1508 44.7963 34.102 45.004 34.1022C45.2118 34.1024 45.4158 34.1515 45.5956 34.2445L45.5889 34.2425L57.06 40.1652C57.4144 40.349 57.6478 40.6888 57.6478 41.0753L57.6489 52.9227Z" fill="#FF3939"/>
<path d="M52.4194 50.6489H51.5938C51.3972 50.6485 51.2039 50.691 51.0328 50.7723L51.0394 50.7686L46.0571 53.0642L40.3038 50.2779V44.7198L46.0571 41.9317L51.0415 44.2199C51.2006 44.2949 51.3934 44.3397 51.5949 44.3397H52.4205C52.4963 44.3395 52.5714 44.3269 52.6414 44.3024C52.7113 44.278 52.7749 44.2422 52.8284 44.1972C52.8819 44.1521 52.9243 44.0986 52.9532 44.0398C52.9821 43.981 52.9969 43.918 52.9967 43.8544V43.2001C52.9968 43.1139 52.9696 43.0293 52.9177 42.9549C52.8658 42.8805 52.7912 42.8191 52.7015 42.777L52.6972 42.7752L47.166 40.2374C46.8168 40.0773 46.4242 39.9955 46.0263 40.0002C45.6284 40.0048 45.2387 40.0957 44.8949 40.2639L44.9058 40.2584L39.1535 43.0447C38.8039 43.2157 38.5136 43.4602 38.3113 43.7541C38.109 44.0481 38.0017 44.3813 38 44.7207V50.2788C38 50.9907 38.4597 51.6139 39.1426 51.9493L39.1524 51.9548L44.9047 54.7411C45.2501 54.9077 45.6408 54.9969 46.0392 54.9999C46.4376 55.003 46.8302 54.9198 47.1791 54.7585L47.166 54.764L52.6994 52.2171C52.7905 52.1755 52.8665 52.1141 52.9194 52.0393C52.9724 51.9645 53.0002 51.8791 53 51.7921V51.1378C52.9997 51.0097 52.9389 50.8868 52.8309 50.7962C52.7229 50.7056 52.5765 50.6546 52.4238 50.6544L52.4194 50.6489Z" fill="#FF3939"/>
</svg>
