<svg width="90" height="90" viewBox="0 0 90 90" fill="none" xmlns="http://www.w3.org/2000/svg">
<rect width="90" height="90" fill="#0B2639"/>
<path d="M45.5 39.4074C46.4482 39.4074 47.3576 39.0172 48.0281 38.3226C48.6986 37.628 49.0753 36.686 49.0753 35.7037C49.0753 34.7214 48.6986 33.7794 48.0281 33.0848C47.3576 32.3902 46.4482 32 45.5 32C44.5518 32 43.6424 32.3902 42.9719 33.0848C42.3014 33.7794 41.9247 34.7214 41.9247 35.7037C41.9247 36.686 42.3014 37.628 42.9719 38.3226C43.6424 39.0172 44.5518 39.4074 45.5 39.4074V39.4074ZM45.5 57C46.4482 57 47.3576 56.6098 48.0281 55.9152C48.6986 55.2206 49.0753 54.2786 49.0753 53.2963C49.0753 52.314 48.6986 51.372 48.0281 50.6774C47.3576 49.9828 46.4482 49.5926 45.5 49.5926C44.5518 49.5926 43.6424 49.9828 42.9719 50.6774C42.3014 51.372 41.9247 52.314 41.9247 53.2963C41.9247 54.2786 42.3014 55.2206 42.9719 55.9152C43.6424 56.6098 44.5518 57 45.5 57V57ZM35.7351 41.6667C34.2335 41.6667 33 42.9444 33 44.5C33 46.0648 34.2335 47.3426 35.7351 47.3333H55.2649C56.7665 47.3333 58 46.0648 58 44.5C58 42.9444 56.7755 41.6667 55.2649 41.6667H35.7351Z" fill="#39ADFF"/>
</svg>
