<svg width="90" height="90" viewBox="0 0 90 90" fill="none" xmlns="http://www.w3.org/2000/svg">
<rect width="90" height="90" fill="white"/>
<path d="M36.7778 34C35.2361 34 34 35.2361 34 36.7778V56.2222C34 56.9589 34.2927 57.6655 34.8136 58.1864C35.3345 58.7073 36.0411 59 36.7778 59H56.2222C56.9589 59 57.6655 58.7073 58.1864 58.1864C58.7073 57.6655 59 56.9589 59 56.2222V36.7778C59 36.0411 58.7073 35.3345 58.1864 34.8136C57.6655 34.2927 56.9589 34 56.2222 34H36.7778ZM48.9444 38.1667H51.2083L52.75 41.7778L54.2639 38.1667H56.5556C56.5556 38.1667 54.1389 44.5139 52.6944 46.9444C52.1667 47.7361 51.1528 48.2639 49.9722 48.2361V46.1528C50.6111 46.1667 51.0139 45.8056 51.3611 45.2917C51.5139 45.1111 51.6111 44.8333 51.6944 44.6111L48.9444 38.1667ZM38.7361 43.1528L42.625 47.0278L46.5 43.1528L48.4583 45.1111L44.5833 48.9861L48.4583 52.875L46.5 54.8333L42.625 50.9583L38.7361 54.8333L36.7778 52.875L40.6528 48.9861L36.7778 45.1111L38.7361 43.1528Z" fill="#FF3939"/>
</svg>
