<svg width="90" height="90" viewBox="0 0 90 90" fill="none" xmlns="http://www.w3.org/2000/svg">
<rect width="90" height="90" fill="#0B2639"/>
<path d="M58 45.5C58 38.5963 52.4037 33 45.5 33C38.5963 33 33 38.5963 33 45.5C33 52.4037 38.5963 58 45.5 58C52.4037 58 58 52.4037 58 45.5ZM50.815 43.625H40.19C39.9414 43.625 39.7029 43.5262 39.5271 43.3504C39.3513 43.1746 39.2525 42.9361 39.2525 42.6875C39.2525 42.4389 39.3513 42.2004 39.5271 42.0246C39.7029 41.8488 39.9414 41.75 40.19 41.75H50.815C51.0636 41.75 51.3021 41.8488 51.4779 42.0246C51.6537 42.2004 51.7525 42.4389 51.7525 42.6875C51.7525 42.9361 51.6537 43.1746 51.4779 43.3504C51.3021 43.5262 51.0636 43.625 50.815 43.625ZM50.815 49.25H40.19C39.9414 49.25 39.7029 49.1512 39.5271 48.9754C39.3513 48.7996 39.2525 48.5611 39.2525 48.3125C39.2525 48.0639 39.3513 47.8254 39.5271 47.6496C39.7029 47.4738 39.9414 47.375 40.19 47.375H50.815C51.0636 47.375 51.3021 47.4738 51.4779 47.6496C51.6537 47.8254 51.7525 48.0639 51.7525 48.3125C51.7525 48.5611 51.6537 48.7996 51.4779 48.9754C51.3021 49.1512 51.0636 49.25 50.815 49.25Z" fill="#39ADFF"/>
</svg>
