<svg width="90" height="90" viewBox="0 0 90 90" fill="none" xmlns="http://www.w3.org/2000/svg">
<rect width="90" height="90" fill="#0B2639"/>
<path d="M49.6963 45.5L57.4057 37.7906C58.1981 36.9982 58.1981 35.7134 57.4057 34.921L56.079 33.5943C55.2866 32.8019 54.0018 32.8019 53.2094 33.5943L45.5 41.3037L37.7906 33.5943C36.9982 32.8019 35.7134 32.8019 34.921 33.5943L33.5943 34.921C32.8019 35.7134 32.8019 36.9982 33.5943 37.7906L41.3037 45.5L33.5943 53.2094C32.8019 54.0018 32.8019 55.2866 33.5943 56.079L34.921 57.4057C35.7134 58.1981 36.9982 58.1981 37.7906 57.4057L45.5 49.6963L53.2094 57.4057C54.0018 58.1981 55.2866 58.1981 56.079 57.4057L57.4057 56.079C58.1981 55.2866 58.1981 54.0018 57.4057 53.2094L49.6963 45.5Z" fill="#39ADFF"/>
</svg>
