<svg width="90" height="90" viewBox="0 0 90 90" fill="none" xmlns="http://www.w3.org/2000/svg">
<rect width="90" height="90" fill="#0B2639"/>
<path d="M40.1127 40.1129C41.7397 38.4859 41.7397 35.8472 40.1127 34.2202C38.4858 32.5933 35.8471 32.5933 34.2202 34.2202C32.5933 35.8472 32.5933 38.4859 34.2202 40.1129C35.8478 41.7405 38.4858 41.7405 40.1127 40.1129ZM56.7793 50.8871C55.1524 49.2601 52.5137 49.2601 50.8868 50.8871C49.2598 52.5141 49.2598 55.1528 50.8868 56.7798C52.5137 58.4067 55.1524 58.4067 56.7793 56.7798C58.4069 55.1528 58.4069 52.5147 56.7793 50.8871ZM56.653 35.8199L55.1804 34.3472C54.3666 33.5334 53.0476 33.5334 52.2344 34.3472L34.3472 52.2348C33.5334 53.0486 33.5334 54.3676 34.3472 55.1808L35.8198 56.6535C36.6336 57.4673 37.9526 57.4673 38.7657 56.6535L56.653 38.7659C57.4668 37.9527 57.4668 36.6337 56.653 35.8199Z" fill="#39ADFF"/>
</svg>
