<svg width="90" height="90" viewBox="0 0 90 90" fill="none" xmlns="http://www.w3.org/2000/svg">
<rect width="90" height="90" fill="white"/>
<path d="M45 40C42.255 40 40 42.2551 40 44.9998C40 47.7449 42.255 50 45 50C47.6514 50 49.8255 47.8908 49.9721 45.2739C49.9904 45.1837 49.9998 45.0919 50 44.9998C49.9999 44.9073 49.9905 44.8151 49.9721 44.7245C49.8247 42.1077 47.6506 40 45 40ZM45 42.789C46.2378 42.789 47.2112 43.7619 47.2112 44.9998C47.2112 46.2377 46.2378 47.211 45 47.211C43.7622 47.211 42.7888 46.2377 42.7888 44.9998C42.7888 43.7619 43.7622 42.789 45 42.789Z" fill="#1E1E1E"/>
</svg>
