<svg width="90" height="90" viewBox="0 0 90 90" fill="none" xmlns="http://www.w3.org/2000/svg">
<rect width="90" height="90" fill="white"/>
<path d="M47.6838 41.3172L47.8338 30.4155C47.8493 29.295 46.9534 28.3741 45.8328 28.3586L43.9568 28.3328C42.8362 28.3174 41.9154 29.2133 41.8999 30.3338L41.7499 41.2355L30.8482 41.0854C29.7277 41.07 28.8068 41.9659 28.7913 43.0865L28.7655 44.9625C28.7501 46.0831 29.646 47.0039 30.7665 47.0194L41.6682 47.1694L41.5181 58.0711C41.5027 59.1916 42.3986 60.1125 43.5192 60.128L45.3952 60.1538C46.5157 60.1692 47.4366 59.2733 47.4521 58.1527L47.6021 47.2511L58.5038 47.4011C59.6243 47.4166 60.5452 46.5207 60.5606 45.4001L60.5865 43.5241C60.6019 42.4035 59.706 41.4827 58.5854 41.4672L47.6838 41.3172Z" fill="#FF3939"/>
</svg>
