<svg width="68" height="68" viewBox="0 0 68 68" fill="none" xmlns="http://www.w3.org/2000/svg">
<circle cx="34" cy="34" r="32.5" fill="white" fill-opacity="0.06" stroke="white" stroke-width="3"/>
<path d="M17.6895 31.1822L32.7943 16.642C33.3567 16.1011 34.1818 16.5905 34.1818 17.4598V46.5401C34.1818 47.4095 33.3567 47.8989 32.7943 47.358L17.6895 32.8178C17.5883 32.7206 17.5065 32.5964 17.4502 32.4547C17.3939 32.3131 17.3647 32.1576 17.3647 32C17.3647 31.8424 17.3939 31.6869 17.4502 31.5453C17.5065 31.4036 17.5883 31.2794 17.6895 31.1822ZM34.5077 31.1822L49.6125 16.642C50.1749 16.1011 51 16.5905 51 17.4598V46.5337C51 47.403 50.1749 47.8924 49.6125 47.3515L34.5077 32.8114C34.2922 32.6053 34.1818 32.2962 34.1818 31.9936C34.1818 31.6973 34.2922 31.3883 34.5077 31.1822ZM14.3364 15H17.0273C17.2112 15 17.3636 15.1739 17.3636 15.3864V48.6136C17.3636 48.8261 17.2112 49 17.0273 49H14.3364C14.1524 49 14 48.8261 14 48.6136V15.3864C14 15.1739 14.1524 15 14.3364 15Z" fill="#EF8DFF" fill-opacity="0.74"/>
</svg>
