<svg width="175" height="69" viewBox="0 0 175 69" fill="none" xmlns="http://www.w3.org/2000/svg">
<rect y="1" width="175" height="68" fill="white" fill-opacity="0.06"/>
<rect x="1" y="2" width="173" height="66" stroke="#DC03FF" stroke-opacity="0.74" stroke-width="2"/>
<path d="M10.339 9.974C10.6937 10.03 11.0157 10.1747 11.305 10.408C11.6037 10.6413 11.837 10.9307 12.005 11.276C12.1823 11.6213 12.271 11.99 12.271 12.382C12.271 12.8767 12.145 13.3247 11.893 13.726C11.641 14.118 11.2723 14.4307 10.787 14.664C10.311 14.888 9.74633 15 9.093 15H5.453V5.242H8.953C9.61567 5.242 10.1803 5.354 10.647 5.578C11.1137 5.79267 11.4637 6.08667 11.697 6.46C11.9303 6.83333 12.047 7.25333 12.047 7.72C12.047 8.29867 11.8883 8.77933 11.571 9.162C11.263 9.53533 10.8523 9.806 10.339 9.974ZM6.727 9.456H8.869C9.46633 9.456 9.92833 9.316 10.255 9.036C10.5817 8.756 10.745 8.36867 10.745 7.874C10.745 7.37933 10.5817 6.992 10.255 6.712C9.92833 6.432 9.457 6.292 8.841 6.292H6.727V9.456ZM8.981 13.95C9.61567 13.95 10.1103 13.8007 10.465 13.502C10.8197 13.2033 10.997 12.788 10.997 12.256C10.997 11.7147 10.8103 11.29 10.437 10.982C10.0637 10.6647 9.56433 10.506 8.939 10.506H6.727V13.95H8.981ZM15.3129 8.574C15.5369 8.13533 15.8543 7.79467 16.2649 7.552C16.6849 7.30933 17.1936 7.188 17.7909 7.188V8.504H17.4549C16.0269 8.504 15.3129 9.27867 15.3129 10.828V15H14.0389V7.328H15.3129V8.574ZM18.7856 11.136C18.7856 10.352 18.9443 9.666 19.2616 9.078C19.5789 8.48067 20.0129 8.01867 20.5636 7.692C21.1236 7.36533 21.7443 7.202 22.4256 7.202C23.0976 7.202 23.6809 7.34667 24.1756 7.636C24.6703 7.92533 25.0389 8.28933 25.2816 8.728V7.328H26.5696V15H25.2816V13.572C25.0296 14.02 24.6516 14.3933 24.1476 14.692C23.6529 14.9813 23.0743 15.126 22.4116 15.126C21.7303 15.126 21.1143 14.958 20.5636 14.622C20.0129 14.286 19.5789 13.8147 19.2616 13.208C18.9443 12.6013 18.7856 11.9107 18.7856 11.136ZM25.2816 11.15C25.2816 10.5713 25.1649 10.0673 24.9316 9.638C24.6983 9.20867 24.3809 8.882 23.9796 8.658C23.5876 8.42467 23.1536 8.308 22.6776 8.308C22.2016 8.308 21.7676 8.42 21.3756 8.644C20.9836 8.868 20.6709 9.19467 20.4376 9.624C20.2043 10.0533 20.0876 10.5573 20.0876 11.136C20.0876 11.724 20.2043 12.2373 20.4376 12.676C20.6709 13.1053 20.9836 13.4367 21.3756 13.67C21.7676 13.894 22.2016 14.006 22.6776 14.006C23.1536 14.006 23.5876 13.894 23.9796 13.67C24.3809 13.4367 24.6983 13.1053 24.9316 12.676C25.1649 12.2373 25.2816 11.7287 25.2816 11.15ZM32.4605 7.188C33.3939 7.188 34.1499 7.47267 34.7285 8.042C35.3072 8.602 35.5965 9.414 35.5965 10.478V15H34.3365V10.66C34.3365 9.89467 34.1452 9.31133 33.7625 8.91C33.3799 8.49933 32.8572 8.294 32.1945 8.294C31.5225 8.294 30.9859 8.504 30.5845 8.924C30.1925 9.344 29.9965 9.95533 29.9965 10.758V15H28.7225V7.328H29.9965V8.42C30.2485 8.028 30.5892 7.72467 31.0185 7.51C31.4572 7.29533 31.9379 7.188 32.4605 7.188ZM37.2016 11.136C37.2016 10.352 37.3603 9.666 37.6776 9.078C37.9949 8.48067 38.4289 8.01867 38.9796 7.692C39.5396 7.36533 40.1649 7.202 40.8556 7.202C41.4529 7.202 42.0083 7.342 42.5216 7.622C43.0349 7.89267 43.4269 8.252 43.6976 8.7V4.64H44.9856V15H43.6976V13.558C43.4456 14.0153 43.0723 14.3933 42.5776 14.692C42.0829 14.9813 41.5043 15.126 40.8416 15.126C40.1603 15.126 39.5396 14.958 38.9796 14.622C38.4289 14.286 37.9949 13.8147 37.6776 13.208C37.3603 12.6013 37.2016 11.9107 37.2016 11.136ZM43.6976 11.15C43.6976 10.5713 43.5809 10.0673 43.3476 9.638C43.1143 9.20867 42.7969 8.882 42.3956 8.658C42.0036 8.42467 41.5696 8.308 41.0936 8.308C40.6176 8.308 40.1836 8.42 39.7916 8.644C39.3996 8.868 39.0869 9.19467 38.8536 9.624C38.6203 10.0533 38.5036 10.5573 38.5036 11.136C38.5036 11.724 38.6203 12.2373 38.8536 12.676C39.0869 13.1053 39.3996 13.4367 39.7916 13.67C40.1836 13.894 40.6176 14.006 41.0936 14.006C41.5696 14.006 42.0036 13.894 42.3956 13.67C42.7969 13.4367 43.1143 13.1053 43.3476 12.676C43.5809 12.2373 43.6976 11.7287 43.6976 11.15ZM47.5445 15.084C47.3019 15.084 47.0965 15 46.9285 14.832C46.7605 14.664 46.6765 14.4587 46.6765 14.216C46.6765 13.9733 46.7605 13.768 46.9285 13.6C47.0965 13.432 47.3019 13.348 47.5445 13.348C47.7779 13.348 47.9739 13.432 48.1325 13.6C48.3005 13.768 48.3845 13.9733 48.3845 14.216C48.3845 14.4587 48.3005 14.664 48.1325 14.832C47.9739 15 47.7779 15.084 47.5445 15.084ZM47.5445 9.092C47.3019 9.092 47.0965 9.008 46.9285 8.84C46.7605 8.672 46.6765 8.46667 46.6765 8.224C46.6765 7.98133 46.7605 7.776 46.9285 7.608C47.0965 7.44 47.3019 7.356 47.5445 7.356C47.7779 7.356 47.9739 7.44 48.1325 7.608C48.3005 7.776 48.3845 7.98133 48.3845 8.224C48.3845 8.46667 48.3005 8.672 48.1325 8.84C47.9739 9.008 47.7779 9.092 47.5445 9.092Z" fill="black"/>
<rect x="15.3125" y="31" width="144.375" height="17" fill="#560064" fill-opacity="0.23"/>
</svg>
