<svg width="60" height="60" viewBox="0 0 60 60" fill="none" xmlns="http://www.w3.org/2000/svg">
<rect x="1" y="1" width="58" height="58" stroke="white" stroke-width="2"/>
<path d="M21.4281 44.2562L26.369 39.6437C24.6426 39.3021 22.9981 38.6792 21.5146 37.8051L21.4281 44.2562ZM37.5719 8.74444L32.6324 13.3563C34.3589 13.6982 36.0034 14.3212 37.4868 15.1955L37.5719 8.74444M15.0747 29.3533L10.0115 33.8537L17.092 33.7756C16.1326 32.4243 15.4492 30.9261 15.0747 29.3533M43.9253 23.6473L48.9885 19.1456L41.908 19.2244C42.8674 20.576 43.5508 22.0743 43.9253 23.6473M17.0927 19.2238L10.0122 19.145L15.0754 23.6467C15.4492 22.0735 16.1326 20.575 17.0927 19.2238M41.9073 33.7762L48.9878 33.8544L43.9246 29.3533C43.5507 30.9265 42.8673 32.4249 41.9073 33.7762M26.369 13.3563L21.4281 8.7438L21.5146 15.1949C22.9981 14.3208 24.6426 13.6979 26.369 13.3563M32.631 39.6437L37.5719 44.2556L37.4854 37.8051C36.0018 38.679 34.3573 39.3018 32.631 39.6437M17.3725 34.1632L14.5832 40.0896L21.0885 37.5495C19.6386 36.6312 18.3802 35.4844 17.3725 34.1632M41.6275 18.8375L44.4154 12.9104L37.9115 15.4505C39.3615 16.3691 40.6199 17.516 41.6275 18.8375M14.7344 26.5C14.7344 25.6813 14.8279 24.8831 14.9819 24.1034L8.40625 26.4994L14.9819 28.8953C14.8212 28.1052 14.7383 27.3036 14.7344 26.5V26.5ZM50.5938 26.5L44.0181 24.1034C44.1721 24.8831 44.2656 25.6813 44.2656 26.5C44.2656 27.3194 44.1721 28.1176 44.0181 28.8966L50.5938 26.5ZM21.0899 15.4499L14.5846 12.9098L17.3725 18.8368C18.381 17.5157 19.6398 16.3687 21.0899 15.4499M37.9101 37.5495L44.4154 40.0896L41.6275 34.1632C40.6192 35.4843 39.3603 36.631 37.9101 37.5495M32.1297 13.2724L29.5 7.28125L26.8703 13.2724C27.7246 13.1321 28.6007 13.0469 29.5 13.0469C30.3993 13.0469 31.2754 13.1321 32.1297 13.2724ZM26.8703 39.7276L29.5 45.7188L32.1297 39.7276C31.2754 39.8679 30.3993 39.9531 29.5 39.9531C28.6007 39.9531 27.7246 39.8679 26.8703 39.7276" fill="#8B00A2" fill-opacity="0.74"/>
<path d="M29.5 38.6719C36.8782 38.6719 42.8594 33.2223 42.8594 26.5C42.8594 19.7777 36.8782 14.3281 29.5 14.3281C22.1218 14.3281 16.1406 19.7777 16.1406 26.5C16.1406 33.2223 22.1218 38.6719 29.5 38.6719Z" fill="#8B00A2" fill-opacity="0.74"/>
<path d="M20.234 46.333C21.07 46.333 21.7923 46.4907 22.401 46.806C23.017 47.114 23.4863 47.5577 23.809 48.137C24.139 48.7163 24.304 49.3983 24.304 50.183C24.304 50.9677 24.139 51.6497 23.809 52.229C23.4863 52.801 23.017 53.241 22.401 53.549C21.7923 53.8497 21.07 54 20.234 54H17.847V46.333H20.234ZM20.234 53.175C21.224 53.175 21.9793 52.9147 22.5 52.394C23.0207 51.866 23.281 51.129 23.281 50.183C23.281 49.2297 23.017 48.4853 22.489 47.95C21.9683 47.4147 21.2167 47.147 20.234 47.147H18.848V53.175H20.234ZM25.2503 50.964C25.2503 50.348 25.375 49.809 25.6243 49.347C25.8737 48.8777 26.2147 48.5147 26.6473 48.258C27.0873 48.0013 27.575 47.873 28.1103 47.873C28.6383 47.873 29.0967 47.9867 29.4853 48.214C29.874 48.4413 30.1637 48.7273 30.3543 49.072V47.972H31.3663V54H30.3543V52.878C30.1563 53.23 29.8593 53.5233 29.4633 53.758C29.0747 53.9853 28.62 54.099 28.0993 54.099C27.564 54.099 27.08 53.967 26.6473 53.703C26.2147 53.439 25.8737 53.0687 25.6243 52.592C25.375 52.1153 25.2503 51.5727 25.2503 50.964ZM30.3543 50.975C30.3543 50.5203 30.2627 50.1243 30.0793 49.787C29.896 49.4497 29.6467 49.193 29.3313 49.017C29.0233 48.8337 28.6823 48.742 28.3083 48.742C27.9343 48.742 27.5933 48.83 27.2853 49.006C26.9773 49.182 26.7317 49.4387 26.5483 49.776C26.365 50.1133 26.2733 50.5093 26.2733 50.964C26.2733 51.426 26.365 51.8293 26.5483 52.174C26.7317 52.5113 26.9773 52.7717 27.2853 52.955C27.5933 53.131 27.9343 53.219 28.3083 53.219C28.6823 53.219 29.0233 53.131 29.3313 52.955C29.6467 52.7717 29.896 52.5113 30.0793 52.174C30.2627 51.8293 30.3543 51.4297 30.3543 50.975ZM38.2499 47.972L34.6199 56.838H33.5859L34.7739 53.934L32.3429 47.972H33.4539L35.3459 52.856L37.2159 47.972H38.2499Z" fill="white"/>
</svg>
