<svg width="60" height="60" viewBox="0 0 60 60" fill="none" xmlns="http://www.w3.org/2000/svg">
<rect x="1" y="1" width="58" height="58" stroke="#1E1E1E" stroke-width="2"/>
<path d="M24.75 5.64277C25.0062 5.91706 25.1632 6.25274 25.2006 6.60644C25.2381 6.96014 25.1543 7.3156 24.96 7.6269C23.4424 10.0816 22.6498 12.833 22.6553 15.6281C22.6553 24.9267 31.26 32.4562 41.865 32.4562C43.2484 32.4562 44.595 32.329 45.8891 32.0862C46.2858 32.0105 46.6991 32.0395 47.0772 32.1694C47.4553 32.2994 47.7816 32.5246 48.0154 32.817C48.2621 33.1209 48.3879 33.4882 48.3732 33.8617C48.3584 34.2351 48.2041 34.5939 47.934 34.882C45.8752 37.11 43.2779 38.9051 40.3316 40.1365C37.3852 41.3678 34.1641 42.0045 30.903 41.9999C18.8017 41.9999 9 33.4113 9 22.8293C9 14.865 14.5493 8.0339 22.4505 5.13865C22.8441 4.99211 23.281 4.96203 23.6957 5.05294C24.1103 5.14384 24.4803 5.35082 24.75 5.64277V5.64277Z" fill="#8B00A2" fill-opacity="0.74"/>
<path d="M37.3342 12.2797C37.3719 12.1796 37.4444 12.0924 37.5415 12.0306C37.6385 11.9689 37.7552 11.9356 37.875 11.9356C37.9947 11.9356 38.1114 11.9689 38.2085 12.0306C38.3056 12.0924 38.3781 12.1796 38.4157 12.2797L39.4316 14.9668C39.8857 16.1647 40.9515 17.1036 42.3112 17.5036L45.3615 18.3986C45.4752 18.4317 45.5741 18.4956 45.6442 18.5811C45.7143 18.6667 45.7521 18.7695 45.7521 18.875C45.7521 18.9804 45.7143 19.0833 45.6442 19.1688C45.5741 19.2543 45.4752 19.3182 45.3615 19.3513L42.3112 20.2463C41.6406 20.4431 41.0313 20.7748 40.5314 21.2151C40.0316 21.6555 39.655 22.1923 39.4316 22.7831L38.4157 25.4702C38.3781 25.5703 38.3056 25.6575 38.2085 25.7193C38.1114 25.781 37.9947 25.8143 37.875 25.8143C37.7552 25.8143 37.6385 25.781 37.5415 25.7193C37.4444 25.6575 37.3719 25.5703 37.3342 25.4702L36.3184 22.7831C36.0949 22.1923 35.7184 21.6555 35.2186 21.2151C34.7187 20.7748 34.1094 20.4431 33.4387 20.2463L30.3885 19.3513C30.2748 19.3182 30.1759 19.2543 30.1058 19.1688C30.0357 19.0833 29.9979 18.9804 29.9979 18.875C29.9979 18.7695 30.0357 18.6667 30.1058 18.5811C30.1759 18.4956 30.2748 18.4317 30.3885 18.3986L33.4387 17.5036C34.1094 17.3068 34.7187 16.9751 35.2186 16.5348C35.7184 16.0944 36.0949 15.5576 36.3184 14.9668L37.3342 12.2797V12.2797ZM45.3904 5.22889C45.4163 5.16305 45.4648 5.10595 45.5293 5.06554C45.5937 5.02513 45.6709 5.00342 45.75 5.00342C45.8291 5.00342 45.9062 5.02513 45.9707 5.06554C46.0351 5.10595 46.0837 5.16305 46.1096 5.22889L46.7869 7.01877C47.0887 7.81889 47.8001 8.44558 48.7084 8.71152L50.7401 9.30814C50.8149 9.33097 50.8797 9.37375 50.9255 9.43053C50.9714 9.48731 50.9961 9.55526 50.9961 9.62495C50.9961 9.69465 50.9714 9.7626 50.9255 9.81938C50.8797 9.87616 50.8149 9.91894 50.7401 9.94177L48.7084 10.5384C48.2608 10.6696 47.8541 10.8909 47.5205 11.1847C47.187 11.4785 46.9358 11.8368 46.7869 12.2311L46.1096 14.021C46.0837 14.0869 46.0351 14.144 45.9707 14.1844C45.9062 14.2248 45.8291 14.2465 45.75 14.2465C45.6709 14.2465 45.5937 14.2248 45.5293 14.1844C45.4648 14.144 45.4163 14.0869 45.3904 14.021L44.7131 12.2311C44.5642 11.8368 44.313 11.4785 43.9795 11.1847C43.6459 10.8909 43.2392 10.6696 42.7916 10.5384L40.7599 9.94177C40.6851 9.91894 40.6203 9.87616 40.5744 9.81938C40.5286 9.7626 40.5039 9.69465 40.5039 9.62495C40.5039 9.55526 40.5286 9.48731 40.5744 9.43053C40.6203 9.37375 40.6851 9.33097 40.7599 9.30814L42.7916 8.71152C43.6999 8.44558 44.4112 7.81889 44.7131 7.01877L45.3904 5.23121V5.22889Z" fill="#8B00A2" fill-opacity="0.74"/>
<path d="M20.234 46.333C21.07 46.333 21.7923 46.4907 22.401 46.806C23.017 47.114 23.4863 47.5577 23.809 48.137C24.139 48.7163 24.304 49.3983 24.304 50.183C24.304 50.9677 24.139 51.6497 23.809 52.229C23.4863 52.801 23.017 53.241 22.401 53.549C21.7923 53.8497 21.07 54 20.234 54H17.847V46.333H20.234ZM20.234 53.175C21.224 53.175 21.9793 52.9147 22.5 52.394C23.0207 51.866 23.281 51.129 23.281 50.183C23.281 49.2297 23.017 48.4853 22.489 47.95C21.9683 47.4147 21.2167 47.147 20.234 47.147H18.848V53.175H20.234ZM25.2503 50.964C25.2503 50.348 25.375 49.809 25.6243 49.347C25.8737 48.8777 26.2147 48.5147 26.6473 48.258C27.0873 48.0013 27.575 47.873 28.1103 47.873C28.6383 47.873 29.0967 47.9867 29.4853 48.214C29.874 48.4413 30.1637 48.7273 30.3543 49.072V47.972H31.3663V54H30.3543V52.878C30.1563 53.23 29.8593 53.5233 29.4633 53.758C29.0747 53.9853 28.62 54.099 28.0993 54.099C27.564 54.099 27.08 53.967 26.6473 53.703C26.2147 53.439 25.8737 53.0687 25.6243 52.592C25.375 52.1153 25.2503 51.5727 25.2503 50.964ZM30.3543 50.975C30.3543 50.5203 30.2627 50.1243 30.0793 49.787C29.896 49.4497 29.6467 49.193 29.3313 49.017C29.0233 48.8337 28.6823 48.742 28.3083 48.742C27.9343 48.742 27.5933 48.83 27.2853 49.006C26.9773 49.182 26.7317 49.4387 26.5483 49.776C26.365 50.1133 26.2733 50.5093 26.2733 50.964C26.2733 51.426 26.365 51.8293 26.5483 52.174C26.7317 52.5113 26.9773 52.7717 27.2853 52.955C27.5933 53.131 27.9343 53.219 28.3083 53.219C28.6823 53.219 29.0233 53.131 29.3313 52.955C29.6467 52.7717 29.896 52.5113 30.0793 52.174C30.2627 51.8293 30.3543 51.4297 30.3543 50.975ZM34.0589 48.951C34.2349 48.6063 34.4843 48.3387 34.8069 48.148C35.1369 47.9573 35.5366 47.862 36.0059 47.862V48.896H35.7419C34.6199 48.896 34.0589 49.5047 34.0589 50.722V54H33.0579V47.972H34.0589V48.951ZM40.5275 54L38.1625 51.338V54H37.1615V45.86H38.1625V50.645L40.4835 47.972H41.8805L39.0425 50.975L41.8915 54H40.5275Z" fill="black"/>
</svg>
