<svg width="175" height="68" viewBox="0 0 175 68" fill="none" xmlns="http://www.w3.org/2000/svg">
<rect x="1" y="1" width="173" height="66" fill="#DC03FF" fill-opacity="0.06" stroke="#DC03FF" stroke-width="2"/>
<path d="M7.1645 12.114C7.1645 11.162 7.37917 10.308 7.8085 9.552C8.23783 8.78667 8.82117 8.18933 9.5585 7.76C10.3052 7.33067 11.1312 7.116 12.0365 7.116C13.1005 7.116 14.0292 7.37267 14.8225 7.886C15.6158 8.39933 16.1945 9.12733 16.5585 10.07H15.0325C14.7618 9.482 14.3698 9.02933 13.8565 8.712C13.3525 8.39467 12.7458 8.236 12.0365 8.236C11.3552 8.236 10.7438 8.39467 10.2025 8.712C9.66117 9.02933 9.2365 9.482 8.9285 10.07C8.6205 10.6487 8.4665 11.33 8.4665 12.114C8.4665 12.8887 8.6205 13.57 8.9285 14.158C9.2365 14.7367 9.66117 15.1847 10.2025 15.502C10.7438 15.8193 11.3552 15.978 12.0365 15.978C12.7458 15.978 13.3525 15.824 13.8565 15.516C14.3698 15.1987 14.7618 14.746 15.0325 14.158H16.5585C16.1945 15.0913 15.6158 15.8147 14.8225 16.328C14.0292 16.832 13.1005 17.084 12.0365 17.084C11.1312 17.084 10.3052 16.874 9.5585 16.454C8.82117 16.0247 8.23783 15.432 7.8085 14.676C7.37917 13.92 7.1645 13.066 7.1645 12.114ZM21.801 17.126C21.0823 17.126 20.429 16.9627 19.841 16.636C19.2623 16.3093 18.805 15.8473 18.469 15.25C18.1423 14.6433 17.979 13.9433 17.979 13.15C17.979 12.366 18.147 11.6753 18.483 11.078C18.8283 10.4713 19.295 10.0093 19.883 9.692C20.471 9.36533 21.129 9.202 21.857 9.202C22.585 9.202 23.243 9.36533 23.831 9.692C24.419 10.0093 24.881 10.4667 25.217 11.064C25.5623 11.6613 25.735 12.3567 25.735 13.15C25.735 13.9433 25.5576 14.6433 25.203 15.25C24.8576 15.8473 24.3863 16.3093 23.789 16.636C23.1916 16.9627 22.529 17.126 21.801 17.126ZM21.801 16.006C22.2583 16.006 22.6876 15.8987 23.089 15.684C23.4903 15.4693 23.8123 15.1473 24.055 14.718C24.307 14.2887 24.433 13.766 24.433 13.15C24.433 12.534 24.3116 12.0113 24.069 11.582C23.8263 11.1527 23.509 10.8353 23.117 10.63C22.725 10.4153 22.3003 10.308 21.843 10.308C21.3763 10.308 20.947 10.4153 20.555 10.63C20.1723 10.8353 19.8643 11.1527 19.631 11.582C19.3976 12.0113 19.281 12.534 19.281 13.15C19.281 13.7753 19.393 14.3027 19.617 14.732C19.8503 15.1613 20.1583 15.4833 20.541 15.698C20.9236 15.9033 21.3436 16.006 21.801 16.006ZM28.684 6.64V17H27.41V6.64H28.684ZM34.2013 17.126C33.4827 17.126 32.8293 16.9627 32.2413 16.636C31.6627 16.3093 31.2053 15.8473 30.8693 15.25C30.5427 14.6433 30.3793 13.9433 30.3793 13.15C30.3793 12.366 30.5473 11.6753 30.8833 11.078C31.2287 10.4713 31.6953 10.0093 32.2833 9.692C32.8713 9.36533 33.5293 9.202 34.2573 9.202C34.9853 9.202 35.6433 9.36533 36.2313 9.692C36.8193 10.0093 37.2813 10.4667 37.6173 11.064C37.9627 11.6613 38.1353 12.3567 38.1353 13.15C38.1353 13.9433 37.958 14.6433 37.6033 15.25C37.258 15.8473 36.7867 16.3093 36.1893 16.636C35.592 16.9627 34.9293 17.126 34.2013 17.126ZM34.2013 16.006C34.6587 16.006 35.088 15.8987 35.4893 15.684C35.8907 15.4693 36.2127 15.1473 36.4553 14.718C36.7073 14.2887 36.8333 13.766 36.8333 13.15C36.8333 12.534 36.712 12.0113 36.4693 11.582C36.2267 11.1527 35.9093 10.8353 35.5173 10.63C35.1253 10.4153 34.7007 10.308 34.2433 10.308C33.7767 10.308 33.3473 10.4153 32.9553 10.63C32.5727 10.8353 32.2647 11.1527 32.0313 11.582C31.798 12.0113 31.6813 12.534 31.6813 13.15C31.6813 13.7753 31.7933 14.3027 32.0173 14.732C32.2507 15.1613 32.5587 15.4833 32.9413 15.698C33.324 15.9033 33.744 16.006 34.2013 16.006ZM41.0844 10.574C41.3084 10.1353 41.6258 9.79467 42.0364 9.552C42.4564 9.30933 42.9651 9.188 43.5624 9.188V10.504H43.2264C41.7984 10.504 41.0844 11.2787 41.0844 12.828V17H39.8104V9.328H41.0844V10.574ZM45.4391 17.084C45.1964 17.084 44.9911 17 44.8231 16.832C44.6551 16.664 44.5711 16.4587 44.5711 16.216C44.5711 15.9733 44.6551 15.768 44.8231 15.6C44.9911 15.432 45.1964 15.348 45.4391 15.348C45.6724 15.348 45.8684 15.432 46.0271 15.6C46.1951 15.768 46.2791 15.9733 46.2791 16.216C46.2791 16.4587 46.1951 16.664 46.0271 16.832C45.8684 17 45.6724 17.084 45.4391 17.084ZM45.4391 11.092C45.1964 11.092 44.9911 11.008 44.8231 10.84C44.6551 10.672 44.5711 10.4667 44.5711 10.224C44.5711 9.98133 44.6551 9.776 44.8231 9.608C44.9911 9.44 45.1964 9.356 45.4391 9.356C45.6724 9.356 45.8684 9.44 46.0271 9.608C46.1951 9.776 46.2791 9.98133 46.2791 10.224C46.2791 10.4667 46.1951 10.672 46.0271 10.84C45.8684 11.008 45.6724 11.092 45.4391 11.092Z" fill="white"/>
<rect x="17.5" y="31" width="144.375" height="17" fill="#DC03FF" fill-opacity="0.23"/>
</svg>
