<svg width="68" height="68" viewBox="0 0 68 68" fill="none" xmlns="http://www.w3.org/2000/svg">
<circle cx="34" cy="34" r="32.5" fill="white" fill-opacity="0.06" stroke="white" stroke-width="3"/>
<path d="M52.3105 31.1822L37.2057 16.642C36.6433 16.1011 35.8182 16.5905 35.8182 17.4598V46.5401C35.8182 47.4095 36.6433 47.8989 37.2057 47.358L52.3105 32.8178C52.4117 32.7206 52.4935 32.5964 52.5498 32.4547C52.6061 32.3131 52.6353 32.1576 52.6353 32C52.6353 31.8424 52.6061 31.6869 52.5498 31.5453C52.4935 31.4036 52.4117 31.2794 52.3105 31.1822ZM35.4923 31.1822L20.3875 16.642C19.8251 16.1011 19 16.5905 19 17.4598V46.5337C19 47.403 19.8251 47.8924 20.3875 47.3515L35.4923 32.8114C35.7078 32.6053 35.8182 32.2962 35.8182 31.9936C35.8182 31.6973 35.7078 31.3883 35.4923 31.1822ZM55.6636 15H52.9727C52.7888 15 52.6364 15.1739 52.6364 15.3864V48.6136C52.6364 48.8261 52.7888 49 52.9727 49H55.6636C55.8476 49 56 48.8261 56 48.6136V15.3864C56 15.1739 55.8476 15 55.6636 15Z" fill="#EF8DFF" fill-opacity="0.74"/>
</svg>
