<svg width="730" height="258" viewBox="0 0 730 258" fill="none" xmlns="http://www.w3.org/2000/svg">
<rect width="730" height="258" fill="#99CEFF"/>
<path d="M63 48.5C63 60.9264 53.1503 71 41 71C28.8497 71 19 60.9264 19 48.5C19 36.0736 28.8497 26 41 26C53.1503 26 63 36.0736 63 48.5Z" fill="white"/>
<path d="M334 55.5C334 67.9264 324.15 78 312 78C299.85 78 290 67.9264 290 55.5C290 43.0736 299.85 33 312 33C324.15 33 334 43.0736 334 55.5Z" fill="white"/>
<path d="M361 60.5C361 72.9264 351.15 83 339 83C326.85 83 317 72.9264 317 60.5C317 48.0736 326.85 38 339 38C351.15 38 361 48.0736 361 60.5Z" fill="white" fill-opacity="0.8"/>
<path d="M355 32.5C355 44.9264 345.15 55 333 55C320.85 55 311 44.9264 311 32.5C311 20.0736 320.85 10 333 10C345.15 10 355 20.0736 355 32.5Z" fill="white"/>
<path d="M270 32.5C270 44.9264 260.15 55 248 55C235.85 55 226 44.9264 226 32.5C226 20.0736 235.85 10 248 10C260.15 10 270 20.0736 270 32.5Z" fill="white"/>
<path d="M248 60.5C248 72.9264 238.15 83 226 83C213.85 83 204 72.9264 204 60.5C204 48.0736 213.85 38 226 38C238.15 38 248 48.0736 248 60.5Z" fill="white" fill-opacity="0.8"/>
<path d="M217 47.5C217 59.9264 207.15 70 195 70C182.85 70 173 59.9264 173 47.5C173 35.0736 182.85 25 195 25C207.15 25 217 35.0736 217 47.5Z" fill="white"/>
<path d="M236 25.5C236 37.9264 226.15 48 214 48C201.85 48 192 37.9264 192 25.5C192 13.0736 201.85 3 214 3C226.15 3 236 13.0736 236 25.5Z" fill="white" fill-opacity="0.8"/>
<path d="M99 28.0342C99 40.4606 89.1503 50.5342 77 50.5342C64.8497 50.5342 55 40.4606 55 28.0342C55 15.6078 64.8497 5.53418 77 5.53418C89.1503 5.53418 99 15.6078 99 28.0342Z" fill="white"/>
<path d="M85 60.5C85 72.9264 75.1503 83 63 83C50.8497 83 41 72.9264 41 60.5C41 48.0736 50.8497 38 63 38C75.1503 38 85 48.0736 85 60.5Z" fill="white" fill-opacity="0.7"/>
<path d="M63 22.5C63 34.9264 53.1503 45 41 45C28.8497 45 19 34.9264 19 22.5C19 10.0736 28.8497 0 41 0C53.1503 0 63 10.0736 63 22.5Z" fill="white" fill-opacity="0.8"/>
<path d="M115 54.5C115 66.9264 105.15 77 93 77C80.8497 77 71 66.9264 71 54.5C71 42.0736 80.8497 32 93 32C105.15 32 115 42.0736 115 54.5Z" fill="white" fill-opacity="0.8"/>
<path d="M428 48.5C428 60.9264 418.15 71 406 71C393.85 71 384 60.9264 384 48.5C384 36.0736 393.85 26 406 26C418.15 26 428 36.0736 428 48.5Z" fill="white"/>
<path d="M683.053 62.5C683.053 74.9264 673.203 85 661.053 85C648.903 85 639.053 74.9264 639.053 62.5C639.053 50.0736 648.903 40 661.053 40C673.203 40 683.053 50.0736 683.053 62.5Z" fill="white"/>
<path d="M711 55.5C711 67.9264 701.15 78 689 78C676.85 78 667 67.9264 667 55.5C667 43.0736 676.85 33 689 33C701.15 33 711 43.0736 711 55.5Z" fill="white"/>
<path d="M701 31.5C701 43.9264 691.15 54 679 54C666.85 54 657 43.9264 657 31.5C657 19.0736 666.85 9 679 9C691.15 9 701 19.0736 701 31.5Z" fill="white"/>
<path d="M615 32.5C615 44.9264 605.15 55 593 55C580.85 55 571 44.9264 571 32.5C571 20.0736 580.85 10 593 10C605.15 10 615 20.0736 615 32.5Z" fill="white" fill-opacity="0.9"/>
<path d="M613 60.5C613 72.9264 603.15 83 591 83C578.85 83 569 72.9264 569 60.5C569 48.0736 578.85 38 591 38C603.15 38 613 48.0736 613 60.5Z" fill="white" fill-opacity="0.85"/>
<path d="M582 47.5C582 59.9264 572.15 70 560 70C547.85 70 538 59.9264 538 47.5C538 35.0736 547.85 25 560 25C572.15 25 582 35.0736 582 47.5Z" fill="white" fill-opacity="0.8"/>
<path d="M584 25.5C584 37.9264 574.15 48 562 48C549.85 48 540 37.9264 540 25.5C540 13.0736 549.85 3 562 3C574.15 3 584 13.0736 584 25.5Z" fill="white"/>
<path d="M464 28.0342C464 40.4606 454.15 50.5342 442 50.5342C429.85 50.5342 420 40.4606 420 28.0342C420 15.6078 429.85 5.53418 442 5.53418C454.15 5.53418 464 15.6078 464 28.0342Z" fill="white" fill-opacity="0.8"/>
<path d="M450 60.5C450 72.9264 440.15 83 428 83C415.85 83 406 72.9264 406 60.5C406 48.0736 415.85 38 428 38C440.15 38 450 48.0736 450 60.5Z" fill="white" fill-opacity="0.8"/>
<path d="M428 22.5C428 34.9264 418.15 45 406 45C393.85 45 384 34.9264 384 22.5C384 10.0736 393.85 0 406 0C418.15 0 428 10.0736 428 22.5Z" fill="white" fill-opacity="0.8"/>
<path d="M480 54.5C480 66.9264 470.15 77 458 77C445.85 77 436 66.9264 436 54.5C436 42.0736 445.85 32 458 32C470.15 32 480 42.0736 480 54.5Z" fill="white" fill-opacity="0.85"/>
<circle cx="145" cy="36" r="25" fill="#FFC806"/>
<circle cx="505" cy="36" r="25" fill="#FFC806"/>
<circle cx="505" cy="36" r="35" fill="white" fill-opacity="0.22"/>
<circle cx="145" cy="38" r="35" fill="white" fill-opacity="0.22"/>
</svg>
