<svg width="175" height="68" viewBox="0 0 175 68" fill="none" xmlns="http://www.w3.org/2000/svg">
<rect x="1" y="1" width="173" height="66" fill="white" fill-opacity="0.06" stroke="#DC03FF" stroke-width="2"/>
<path d="M15.351 5.312V15H14.077V7.776L10.857 15H9.961L6.727 7.762V15H5.453V5.312H6.825L10.409 13.32L13.993 5.312H15.351ZM20.8576 15.126C20.1389 15.126 19.4856 14.9627 18.8976 14.636C18.3189 14.3093 17.8616 13.8473 17.5256 13.25C17.1989 12.6433 17.0356 11.9433 17.0356 11.15C17.0356 10.366 17.2036 9.67533 17.5396 9.078C17.8849 8.47133 18.3516 8.00933 18.9396 7.692C19.5276 7.36533 20.1856 7.202 20.9136 7.202C21.6416 7.202 22.2996 7.36533 22.8876 7.692C23.4756 8.00933 23.9376 8.46667 24.2736 9.064C24.6189 9.66133 24.7916 10.3567 24.7916 11.15C24.7916 11.9433 24.6143 12.6433 24.2596 13.25C23.9143 13.8473 23.4429 14.3093 22.8456 14.636C22.2483 14.9627 21.5856 15.126 20.8576 15.126ZM20.8576 14.006C21.3149 14.006 21.7443 13.8987 22.1456 13.684C22.5469 13.4693 22.8689 13.1473 23.1116 12.718C23.3636 12.2887 23.4896 11.766 23.4896 11.15C23.4896 10.534 23.3683 10.0113 23.1256 9.582C22.8829 9.15267 22.5656 8.83533 22.1736 8.63C21.7816 8.41533 21.3569 8.308 20.8996 8.308C20.4329 8.308 20.0036 8.41533 19.6116 8.63C19.2289 8.83533 18.9209 9.15267 18.6876 9.582C18.4543 10.0113 18.3376 10.534 18.3376 11.15C18.3376 11.7753 18.4496 12.3027 18.6736 12.732C18.9069 13.1613 19.2149 13.4833 19.5976 13.698C19.9803 13.9033 20.4003 14.006 20.8576 14.006ZM25.9907 11.136C25.9907 10.352 26.1493 9.666 26.4667 9.078C26.784 8.48067 27.218 8.01867 27.7687 7.692C28.3287 7.36533 28.954 7.202 29.6447 7.202C30.242 7.202 30.7973 7.342 31.3107 7.622C31.824 7.89267 32.216 8.252 32.4867 8.7V4.64H33.7747V15H32.4867V13.558C32.2347 14.0153 31.8613 14.3933 31.3667 14.692C30.872 14.9813 30.2933 15.126 29.6307 15.126C28.9493 15.126 28.3287 14.958 27.7687 14.622C27.218 14.286 26.784 13.8147 26.4667 13.208C26.1493 12.6013 25.9907 11.9107 25.9907 11.136ZM32.4867 11.15C32.4867 10.5713 32.37 10.0673 32.1367 9.638C31.9033 9.20867 31.586 8.882 31.1847 8.658C30.7927 8.42467 30.3587 8.308 29.8827 8.308C29.4067 8.308 28.9727 8.42 28.5807 8.644C28.1887 8.868 27.876 9.19467 27.6427 9.624C27.4093 10.0533 27.2927 10.5573 27.2927 11.136C27.2927 11.724 27.4093 12.2373 27.6427 12.676C27.876 13.1053 28.1887 13.4367 28.5807 13.67C28.9727 13.894 29.4067 14.006 29.8827 14.006C30.3587 14.006 30.7927 13.894 31.1847 13.67C31.586 13.4367 31.9033 13.1053 32.1367 12.676C32.37 12.2373 32.4867 11.7287 32.4867 11.15ZM42.9276 10.87C42.9276 11.1127 42.9136 11.3693 42.8856 11.64H36.7536C36.8003 12.396 37.0569 12.9887 37.5236 13.418C37.9996 13.838 38.5736 14.048 39.2456 14.048C39.7963 14.048 40.2536 13.922 40.6176 13.67C40.9909 13.4087 41.2523 13.0633 41.4016 12.634H42.7736C42.5683 13.3713 42.1576 13.9733 41.5416 14.44C40.9256 14.8973 40.1603 15.126 39.2456 15.126C38.5176 15.126 37.8643 14.9627 37.2856 14.636C36.7163 14.3093 36.2683 13.8473 35.9416 13.25C35.6149 12.6433 35.4516 11.9433 35.4516 11.15C35.4516 10.3567 35.6103 9.66133 35.9276 9.064C36.2449 8.46667 36.6883 8.00933 37.2576 7.692C37.8363 7.36533 38.4989 7.202 39.2456 7.202C39.9736 7.202 40.6176 7.36067 41.1776 7.678C41.7376 7.99533 42.1669 8.434 42.4656 8.994C42.7736 9.54467 42.9276 10.17 42.9276 10.87ZM41.6116 10.604C41.6116 10.1187 41.5043 9.70333 41.2896 9.358C41.0749 9.00333 40.7809 8.73733 40.4076 8.56C40.0436 8.37333 39.6376 8.28 39.1896 8.28C38.5456 8.28 37.9949 8.48533 37.5376 8.896C37.0896 9.30667 36.8329 9.876 36.7676 10.604H41.6116ZM45.8833 4.64V15H44.6093V4.64H45.8833ZM48.4606 15.084C48.2179 15.084 48.0126 15 47.8446 14.832C47.6766 14.664 47.5926 14.4587 47.5926 14.216C47.5926 13.9733 47.6766 13.768 47.8446 13.6C48.0126 13.432 48.2179 13.348 48.4606 13.348C48.6939 13.348 48.8899 13.432 49.0486 13.6C49.2166 13.768 49.3006 13.9733 49.3006 14.216C49.3006 14.4587 49.2166 14.664 49.0486 14.832C48.8899 15 48.6939 15.084 48.4606 15.084ZM48.4606 9.092C48.2179 9.092 48.0126 9.008 47.8446 8.84C47.6766 8.672 47.5926 8.46667 47.5926 8.224C47.5926 7.98133 47.6766 7.776 47.8446 7.608C48.0126 7.44 48.2179 7.356 48.4606 7.356C48.6939 7.356 48.8899 7.44 49.0486 7.608C49.2166 7.776 49.3006 7.98133 49.3006 8.224C49.3006 8.46667 49.2166 8.672 49.0486 8.84C48.8899 9.008 48.6939 9.092 48.4606 9.092Z" fill="black"/>
<rect x="15.3125" y="31" width="144.375" height="17" fill="#560064" fill-opacity="0.23"/>
</svg>
