<svg width="175" height="68" viewBox="0 0 175 68" fill="none" xmlns="http://www.w3.org/2000/svg">
<rect width="175" height="68" fill="white" fill-opacity="0.06"/>
<rect x="1" y="1" width="173" height="66" stroke="#DC03FF" stroke-opacity="0.7" stroke-width="2"/>
<path d="M12.7785 16L10.4545 12.01H8.9145V16H7.6405V6.242H10.7905C11.5278 6.242 12.1485 6.368 12.6525 6.62C13.1658 6.872 13.5485 7.21267 13.8005 7.642C14.0525 8.07133 14.1785 8.56133 14.1785 9.112C14.1785 9.784 13.9825 10.3767 13.5905 10.89C13.2078 11.4033 12.6292 11.744 11.8545 11.912L14.3045 16H12.7785ZM8.9145 10.988H10.7905C11.4812 10.988 11.9992 10.82 12.3445 10.484C12.6898 10.1387 12.8625 9.68133 12.8625 9.112C12.8625 8.53333 12.6898 8.08533 12.3445 7.768C12.0085 7.45067 11.4905 7.292 10.7905 7.292H8.9145V10.988ZM23.1581 11.87C23.1581 12.1127 23.1441 12.3693 23.1161 12.64H16.9841C17.0307 13.396 17.2874 13.9887 17.7541 14.418C18.2301 14.838 18.8041 15.048 19.4761 15.048C20.0267 15.048 20.4841 14.922 20.8481 14.67C21.2214 14.4087 21.4827 14.0633 21.6321 13.634H23.0041C22.7987 14.3713 22.3881 14.9733 21.7721 15.44C21.1561 15.8973 20.3907 16.126 19.4761 16.126C18.7481 16.126 18.0947 15.9627 17.5161 15.636C16.9467 15.3093 16.4987 14.8473 16.1721 14.25C15.8454 13.6433 15.6821 12.9433 15.6821 12.15C15.6821 11.3567 15.8407 10.6613 16.1581 10.064C16.4754 9.46667 16.9187 9.00933 17.4881 8.692C18.0667 8.36533 18.7294 8.202 19.4761 8.202C20.2041 8.202 20.8481 8.36067 21.4081 8.678C21.9681 8.99533 22.3974 9.434 22.6961 9.994C23.0041 10.5447 23.1581 11.17 23.1581 11.87ZM21.8421 11.604C21.8421 11.1187 21.7347 10.7033 21.5201 10.358C21.3054 10.0033 21.0114 9.73733 20.6381 9.56C20.2741 9.37333 19.8681 9.28 19.4201 9.28C18.7761 9.28 18.2254 9.48533 17.7681 9.896C17.3201 10.3067 17.0634 10.876 16.9981 11.604H21.8421ZM27.9617 9.378H26.3517V16H25.0777V9.378H24.0837V8.328H25.0777V7.782C25.0777 6.92333 25.2971 6.298 25.7357 5.906C26.1837 5.50467 26.8977 5.304 27.8777 5.304V6.368C27.3177 6.368 26.9211 6.48 26.6877 6.704C26.4637 6.91867 26.3517 7.278 26.3517 7.782V8.328H27.9617V9.378ZM36.4471 11.87C36.4471 12.1127 36.4331 12.3693 36.4051 12.64H30.2731C30.3198 13.396 30.5765 13.9887 31.0431 14.418C31.5191 14.838 32.0931 15.048 32.7651 15.048C33.3158 15.048 33.7731 14.922 34.1371 14.67C34.5105 14.4087 34.7718 14.0633 34.9211 13.634H36.2931C36.0878 14.3713 35.6771 14.9733 35.0611 15.44C34.4451 15.8973 33.6798 16.126 32.7651 16.126C32.0371 16.126 31.3838 15.9627 30.8051 15.636C30.2358 15.3093 29.7878 14.8473 29.4611 14.25C29.1345 13.6433 28.9711 12.9433 28.9711 12.15C28.9711 11.3567 29.1298 10.6613 29.4471 10.064C29.7645 9.46667 30.2078 9.00933 30.7771 8.692C31.3558 8.36533 32.0185 8.202 32.7651 8.202C33.4931 8.202 34.1371 8.36067 34.6971 8.678C35.2571 8.99533 35.6865 9.434 35.9851 9.994C36.2931 10.5447 36.4471 11.17 36.4471 11.87ZM35.1311 11.604C35.1311 11.1187 35.0238 10.7033 34.8091 10.358C34.5945 10.0033 34.3005 9.73733 33.9271 9.56C33.5631 9.37333 33.1571 9.28 32.7091 9.28C32.0651 9.28 31.5145 9.48533 31.0571 9.896C30.6091 10.3067 30.3525 10.876 30.2871 11.604H35.1311ZM39.4028 9.574C39.6268 9.13533 39.9441 8.79467 40.3548 8.552C40.7748 8.30933 41.2834 8.188 41.8808 8.188V9.504H41.5448C40.1168 9.504 39.4028 10.2787 39.4028 11.828V16H38.1288V8.328H39.4028V9.574ZM50.3514 11.87C50.3514 12.1127 50.3374 12.3693 50.3094 12.64H44.1774C44.2241 13.396 44.4808 13.9887 44.9474 14.418C45.4234 14.838 45.9974 15.048 46.6694 15.048C47.2201 15.048 47.6774 14.922 48.0414 14.67C48.4148 14.4087 48.6761 14.0633 48.8254 13.634H50.1974C49.9921 14.3713 49.5814 14.9733 48.9654 15.44C48.3494 15.8973 47.5841 16.126 46.6694 16.126C45.9414 16.126 45.2881 15.9627 44.7094 15.636C44.1401 15.3093 43.6921 14.8473 43.3654 14.25C43.0388 13.6433 42.8754 12.9433 42.8754 12.15C42.8754 11.3567 43.0341 10.6613 43.3514 10.064C43.6688 9.46667 44.1121 9.00933 44.6814 8.692C45.2601 8.36533 45.9228 8.202 46.6694 8.202C47.3974 8.202 48.0414 8.36067 48.6014 8.678C49.1614 8.99533 49.5908 9.434 49.8894 9.994C50.1974 10.5447 50.3514 11.17 50.3514 11.87ZM49.0354 11.604C49.0354 11.1187 48.9281 10.7033 48.7134 10.358C48.4988 10.0033 48.2048 9.73733 47.8314 9.56C47.4674 9.37333 47.0614 9.28 46.6134 9.28C45.9694 9.28 45.4188 9.48533 44.9614 9.896C44.5134 10.3067 44.2568 10.876 44.1914 11.604H49.0354ZM55.7711 8.188C56.7044 8.188 57.4604 8.47267 58.0391 9.042C58.6177 9.602 58.9071 10.414 58.9071 11.478V16H57.6471V11.66C57.6471 10.8947 57.4557 10.3113 57.0731 9.91C56.6904 9.49933 56.1677 9.294 55.5051 9.294C54.8331 9.294 54.2964 9.504 53.8951 9.924C53.5031 10.344 53.3071 10.9553 53.3071 11.758V16H52.0331V8.328H53.3071V9.42C53.5591 9.028 53.8997 8.72467 54.3291 8.51C54.7677 8.29533 55.2484 8.188 55.7711 8.188ZM60.5122 12.15C60.5122 11.3567 60.6708 10.666 60.9882 10.078C61.3055 9.48067 61.7442 9.01867 62.3042 8.692C62.8735 8.36533 63.5222 8.202 64.2502 8.202C65.1928 8.202 65.9675 8.43067 66.5742 8.888C67.1902 9.34533 67.5962 9.98 67.7922 10.792H66.4202C66.2895 10.3253 66.0328 9.95667 65.6502 9.686C65.2768 9.41533 64.8102 9.28 64.2502 9.28C63.5222 9.28 62.9342 9.532 62.4862 10.036C62.0382 10.5307 61.8142 11.2353 61.8142 12.15C61.8142 13.074 62.0382 13.788 62.4862 14.292C62.9342 14.796 63.5222 15.048 64.2502 15.048C64.8102 15.048 65.2768 14.9173 65.6502 14.656C66.0235 14.3947 66.2802 14.0213 66.4202 13.536H67.7922C67.5868 14.32 67.1762 14.95 66.5602 15.426C65.9442 15.8927 65.1742 16.126 64.2502 16.126C63.5222 16.126 62.8735 15.9627 62.3042 15.636C61.7442 15.3093 61.3055 14.8473 60.9882 14.25C60.6708 13.6527 60.5122 12.9527 60.5122 12.15ZM76.4921 11.87C76.4921 12.1127 76.4781 12.3693 76.4501 12.64H70.3181C70.3647 13.396 70.6214 13.9887 71.0881 14.418C71.5641 14.838 72.1381 15.048 72.8101 15.048C73.3607 15.048 73.8181 14.922 74.1821 14.67C74.5554 14.4087 74.8167 14.0633 74.9661 13.634H76.3381C76.1327 14.3713 75.7221 14.9733 75.1061 15.44C74.4901 15.8973 73.7247 16.126 72.8101 16.126C72.0821 16.126 71.4287 15.9627 70.8501 15.636C70.2807 15.3093 69.8327 14.8473 69.5061 14.25C69.1794 13.6433 69.0161 12.9433 69.0161 12.15C69.0161 11.3567 69.1747 10.6613 69.4921 10.064C69.8094 9.46667 70.2527 9.00933 70.8221 8.692C71.4007 8.36533 72.0634 8.202 72.8101 8.202C73.5381 8.202 74.1821 8.36067 74.7421 8.678C75.3021 8.99533 75.7314 9.434 76.0301 9.994C76.3381 10.5447 76.4921 11.17 76.4921 11.87ZM75.1761 11.604C75.1761 11.1187 75.0687 10.7033 74.8541 10.358C74.6394 10.0033 74.3454 9.73733 73.9721 9.56C73.6081 9.37333 73.2021 9.28 72.7541 9.28C72.1101 9.28 71.5594 9.48533 71.1021 9.896C70.6541 10.3067 70.3974 10.876 70.3321 11.604H75.1761ZM78.5797 16.084C78.337 16.084 78.1317 16 77.9637 15.832C77.7957 15.664 77.7117 15.4587 77.7117 15.216C77.7117 14.9733 77.7957 14.768 77.9637 14.6C78.1317 14.432 78.337 14.348 78.5797 14.348C78.813 14.348 79.009 14.432 79.1677 14.6C79.3357 14.768 79.4197 14.9733 79.4197 15.216C79.4197 15.4587 79.3357 15.664 79.1677 15.832C79.009 16 78.813 16.084 78.5797 16.084ZM78.5797 10.092C78.337 10.092 78.1317 10.008 77.9637 9.84C77.7957 9.672 77.7117 9.46667 77.7117 9.224C77.7117 8.98133 77.7957 8.776 77.9637 8.608C78.1317 8.44 78.337 8.356 78.5797 8.356C78.813 8.356 79.009 8.44 79.1677 8.608C79.3357 8.776 79.4197 8.98133 79.4197 9.224C79.4197 9.46667 79.3357 9.672 79.1677 9.84C79.009 10.008 78.813 10.092 78.5797 10.092Z" fill="black"/>
<rect x="17.5" y="30" width="144.375" height="17" fill="#560064" fill-opacity="0.23"/>
</svg>
